<?xml version="1.0" standalone="yes"?>

<svg version="1.1" viewBox="0.0 0.0 623.0 100.0" fill="none" stroke="none" stroke-linecap="square" stroke-miterlimit="10" clip-path="url(#p.0)" xmlns="http://www.w3.org/2000/svg" xmlns:xlink="http://www.w3.org/1999/xlink"><clipPath id="p.0"><path d="m0 0l623.0 0l0 100.0l-623.0 0l0 -100.0z" clip-rule="nonzero"></path></clipPath><path fill="#f9cb9c" stroke="#000000" stroke-width="2.0" stroke-linejoin="round" stroke-linecap="butt" d="m19.167278 19.757977l0 52.542706l-5.176243 0l0 -52.542706l-12.060646 0l0 -7.3600683l29.84104 0l0 7.3600683l-12.604151 0zm32.22211 47.513325q-2.9504585 5.8471603 -9.032543 5.8471603q-3.261032 0 -5.659359 -3.7345505q-2.389698 -3.7481842 -2.389698 -9.309124q0 -6.6649475 3.6837578 -11.258175q3.6923866 -4.6068573 9.412136 -4.6068573q1.5528717 0 3.519844 1.0631218q0 -10.63121 -6.0044403 -10.63121q-4.6068573 0 -7.0914536 3.9253693l-2.0704956 -6.5013924q1.397583 -1.7991276 3.8649254 -3.0803242q2.4759712 -1.2948265 4.7276382 -1.2948265q6.030319 0 8.756477 4.334261q2.7347794 4.334263 2.7347794 13.779682l0 15.701477q0 5.7653885 2.1740227 7.6871796l0 3.8844833q-3.0022202 0 -4.494705 -1.34935q-1.4838562 -1.3493423 -2.130886 -4.4569244zm-0.46586227 -16.478374q-2.3293076 -0.8177872 -3.261032 -0.8177872q-3.7268944 0 -6.0820847 3.0258064q-2.3551903 3.0258064 -2.3551903 7.1556206q0 6.8285103 5.0985985 6.8285103q3.7268944 0 6.5997086 -5.6018333l0 -10.590317zm29.530468 21.507755l-7.5573196 -15.9468155l-6.7549973 15.9468155l-5.7456245 0l10.067791 -22.407318l-9.2395935 -21.385086l5.538582 0l6.211487 15.047249l6.9620514 -15.047249l5.435051 0l-10.067787 21.385086l11.025391 22.407318l-5.8750305 0zm39.857063 -52.542706l0 52.542706l-5.176239 0l0 -52.542706l-12.060646 0l0 -7.3600683l29.841034 0l0 7.3600683l-12.604149 0zm21.636696 -7.8098497q1.2681885 0 2.1567688 1.4174948q0.8972168 1.4038639 0.8972168 3.3665485q0 2.0035744 -0.8972168 3.4210682q-0.8885803 1.4038658 -2.1567688 1.4038658q-1.2422943 0 -2.139511 -1.4038658q-0.8885956 -1.4174938 -0.8885956 -3.4210682q0 -2.0035734 0.87997437 -3.3938084q0.8799591 -1.390235 2.1481323 -1.390235zm-2.6916504 60.352554l0 -37.250122l-3.804535 0l0 -6.542282l8.72197 0l0 43.792404l-4.9174347 0zm11.724197 11.980553l2.6657715 -6.215172q4.29628 4.5387115 7.919647 4.5387115q3.3386688 0 5.262512 -1.8263855q1.9324646 -1.8127594 1.9324646 -4.5114517q0 -5.315605 -4.865677 -5.315605q-0.82818604 0 -3.0022125 0.6542282q-2.1740265 0.6542282 -3.390442 0.6542282q-5.9009094 0 -5.9009094 -7.0329514q0 -2.1671333 1.3803253 -3.9253693q1.3889618 -1.7582397 3.4335785 -2.5351372q-5.8491516 -4.334259 -5.8491516 -15.047245q0 -6.869396 3.0280914 -11.448994q3.0281067 -4.5795994 7.4796753 -4.5795994q4.0892334 0 6.3926544 2.6578026l2.458725 -4.661377l3.209259 4.7840443l-2.9504547 3.5164757q1.889328 3.8844795 1.889328 10.140537q0 6.6240616 -2.6139984 11.12188q-2.6139984 4.497818 -6.8585205 5.152046l-4.0633545 0.6542282q-0.7246704 0.12266922 -1.9410858 0.88593674q-1.2164154 0.7496338 -1.2164154 1.9763145q0 1.6764603 2.5363464 1.6764603q1.1128998 0 3.4680939 -0.6269684q2.355194 -0.6406021 3.4939575 -0.6406021q4.0892334 0 6.375412 3.093956q2.2947998 3.0803223 2.2947998 8.559486q0 6.051613 -3.4335785 9.77253q-3.424942 3.7209244 -8.678833 3.7209244q-2.6916504 0 -5.667984 -1.5129013q-2.9763336 -1.5129013 -4.788025 -3.6800308zm10.43013 -50.334686q-2.5622406 0 -4.184128 2.8622513q-1.613266 2.8622475 -1.613266 6.951172q0 4.5795975 1.5614929 7.591774q1.5701294 2.9985466 4.235901 2.9985466q2.6139984 0 4.0892334 -2.9167671q1.4752197 -2.930397 1.4752197 -7.6735535q0 -4.0889244 -1.5960083 -6.951172q-1.5873718 -2.8622513 -3.9684448 -2.8622513zm40.529984 17.214382l-19.9803 0q0 7.6871796 2.6657715 11.816998q2.3551788 3.5982513 6.056198 3.5982513q4.218643 0 7.039688 -3.8844795l2.0704956 5.6018333q-1.1387634 1.7991257 -3.4939575 3.107582q-2.9504547 1.7173462 -6.5738373 1.7173462q-5.227997 0 -8.877258 -5.6018295q-4.063339 -6.1742744 -4.063339 -16.60104q0 -10.835651 4.16687 -17.377934q3.7268982 -5.847166 8.8255005 -5.847166q5.9267883 0 9.291351 5.2747135q3.261032 5.0702705 3.261032 13.452568q0 2.576023 -0.3882141 4.7431564zm-11.931244 -16.928154q-3.286911 0 -5.5126953 3.3529167q-2.1222687 3.1893654 -2.406952 7.932518l15.347549 0q0 -4.7022667 -1.8634338 -7.8507385q-2.0446167 -3.4346962 -5.5644684 -3.4346962zm32.558563 1.7582359q-1.6046295 -1.7582359 -3.2351532 -1.7582359q-2.6139984 0 -4.572342 3.8027q-1.9497223 3.8027 -1.9497223 9.159195l0 25.10601l-4.9174194 0l0 -43.792404l4.9174194 0l0 6.9920654q2.6916504 -7.8098507 7.997299 -7.8098507q1.3199463 0 3.804535 0.7360077l-2.0446167 7.5645123zm27.071747 13.248123l0 23.061546l-5.176239 0l0 -59.902775q5.875046 -0.40889263 7.091461 -0.40889263q16.512222 0 16.512222 17.459715q0 20.199295 -14.597015 20.199295q-0.8799591 0 -3.830429 -0.40888977zm0 -29.48116l0 22.12109q3.2869263 0.4088936 3.4680939 0.4088936q9.627808 0 9.627808 -11.980555q0 -10.958323 -10.274841 -10.958323q-1.0352478 0 -2.8210602 0.4088936zm39.054764 16.233036q-1.6046448 -1.7582359 -3.2351685 -1.7582359q-2.6139832 0 -4.5723267 3.8027q-1.9497375 3.8027 -1.9497375 9.159195l0 25.10601l-4.9174194 0l0 -43.792404l4.9174194 0l0 6.9920654q2.6916504 -7.8098507 7.9973145 -7.8098507q1.3199463 0 3.804535 0.7360077l-2.0446167 7.5645123zm3.7268982 14.311241q0 -10.140537 3.4508057 -16.369335q3.4594727 -6.242426 9.1015625 -6.242426q5.9526978 0 9.2395935 5.9970913q3.2869263 5.9834633 3.2869263 16.61467q0 10.590321 -3.364563 16.710083q-3.364563 6.106125 -9.161957 6.106125q-5.9267883 0 -9.2395935 -6.1742783q-3.3127747 -6.1742783 -3.3127747 -16.64193zm5.176239 0q0 16.47837 7.376129 16.47837q3.4421997 0 5.3919373 -4.4160385q1.9583435 -4.4160385 1.9583435 -12.062332q0 -16.273926 -7.350281 -16.273926q-3.3645325 0 -5.3746643 4.334263q-2.0014648 4.334263 -2.0014648 11.939663zm29.996307 19.58596l0 19.585953l-4.9174194 0l0 -60.96589l4.9174194 0l0 3.5982552q2.7951965 -4.4160404 6.755005 -4.4160404q5.9009094 0 9.187836 5.8062763q3.2869263 5.8062744 3.2869263 17.009933q0 9.976978 -3.3128052 16.301182q-3.3128052 6.3105774 -9.57605 6.3105774q-1.7599182 0 -3.7700195 -0.9813385q-2.0014954 -0.98134613 -2.5708923 -2.248909zm0 -31.934517l0 25.5149q0.46588135 1.1040115 1.96698 2.1126099q1.5011292 0.9949722 2.924591 0.9949722q9.161957 0 9.161957 -16.355701q0 -8.300522 -2.1740417 -12.144112q-2.1740112 -3.8435898 -6.962036 -3.8435898q-1.0352478 0 -2.536377 1.1448975q-1.5010986 1.1449013 -2.381073 2.576023zm47.957916 13.207233l-19.980316 0q0 7.6871796 2.6657715 11.816998q2.355194 3.5982513 6.0562134 3.5982513q4.218628 0 7.039673 -3.8844795l2.0704956 5.6018333q-1.1387634 1.7991257 -3.4939575 3.107582q-2.95047 1.7173462 -6.573822 1.7173462q-5.227997 0 -8.877258 -5.6018295q-4.0633545 -6.1742744 -4.0633545 -16.60104q0 -10.835651 4.16687 -17.377934q3.7268982 -5.847166 8.8255005 -5.847166q5.9267883 0 9.291351 5.2747135q3.2610474 5.0702705 3.2610474 13.452568q0 2.576023 -0.3882141 4.7431564zm-11.931244 -16.928154q-3.2869263 0 -5.5126953 3.3529167q-2.122284 3.1893654 -2.406952 7.932518l15.347534 0q0 -4.7022667 -1.8634338 -7.8507385q-2.0446167 -3.4346962 -5.564453 -3.4346962zm32.558563 1.7582359q-1.6046448 -1.7582359 -3.2351685 -1.7582359q-2.6139832 0 -4.5723267 3.8027q-1.9497375 3.8027 -1.9497375 9.159195l0 25.10601l-4.9174194 0l0 -43.792404l4.9174194 0l0 6.9920654q2.6916504 -7.8098507 7.9973145 -7.8098507q1.3199463 0 3.804535 0.7360077l-2.0446167 7.5645123zm7.2984924 -1.3493462l-3.209259 0l0 -6.1333885l3.209259 0l0 -9.159195l4.91745 -2.9849167l0 12.144112l7.60907 0l0 6.1333885l-7.60907 0l0 21.75309q0 5.52005 1.1732788 7.8507347q1.1818848 2.3306885 3.7958984 2.3306885q1.8893433 0 3.9080505 -1.5129013l0.7247009 6.8285065q-3.0539856 1.226677 -6.703247 1.226677q-3.2869263 0 -5.555847 -3.857216q-2.2602844 -3.8708496 -2.2602844 -9.758907l0 -24.860672zm29.841034 45.100857q-0.95758057 4.1707077 -4.028839 6.9511795q-3.0625916 2.7804642 -6.8412476 2.7804642l0 -6.951172q3.0798645 0 5.2797546 -2.2761688q2.1998901 -2.2625427 2.1998901 -5.533684q0 -3.5982513 -0.8023071 -7.087471q-0.8023071 -3.5028458 -2.0704956 -8.654892l-7.505554 -30.462502l5.0209656 0l8.152588 33.856308l7.3243713 -33.856308l5.0209656 0l-11.750092 51.234245zm61.053802 -6.6240616l-1.6305237 0l-9.032532 -41.298153l-8.437286 41.298153l-1.6305237 0l-11.957123 -60.720554l5.383301 0l7.60907 41.829716l8.333771 -41.829716l1.811676 0l8.230225 41.74794l7.738495 -41.74794l5.3832703 0l-11.801819 60.720554zm20.704956 -61.170334q1.2681885 0 2.1567993 1.4174948q0.8972168 1.4038639 0.8972168 3.3665485q0 2.0035744 -0.8972168 3.4210682q-0.88861084 1.4038658 -2.1567993 1.4038658q-1.2423096 0 -2.1395264 -1.4038658q-0.8885498 -1.4174938 -0.8885498 -3.4210682q0 -2.0035734 0.87994385 -3.3938084q0.87994385 -1.390235 2.1481323 -1.390235zm-2.6916504 60.352554l0 -37.250122l-3.804535 0l0 -6.542282l8.721954 0l0 43.792404l-4.9174194 0zm17.987427 -6.9511795l15.373474 0l0 6.9511795l-23.08606 0l0 -2.044464l15.761658 -34.796764l-15.502808 0l0 -6.9511757l22.671936 0l0 2.2080212l-15.218201 34.6332zm35.56079 1.9217987q-2.9504395 5.8471603 -9.032532 5.8471603q-3.2610474 0 -5.659363 -3.7345505q-2.3897095 -3.7481842 -2.3897095 -9.309124q0 -6.6649475 3.6837769 -11.258175q3.6923828 -4.6068573 9.41217 -4.6068573q1.5528564 0 3.5198364 1.0631218q0 -10.63121 -6.0044556 -10.63121q-4.6068726 0 -7.0914307 3.9253693l-2.0704956 -6.5013924q1.397583 -1.7991276 3.8649292 -3.0803242q2.4759521 -1.2948265 4.7276 -1.2948265q6.0303345 0 8.75647 4.334261q2.7348022 4.334263 2.7348022 13.779682l0 15.701477q0 5.7653885 2.1740112 7.6871796l0 3.8844833q-3.0021973 0 -4.49469 -1.34935q-1.4838867 -1.3493423 -2.1309204 -4.4569244zm-0.4658203 -16.478374q-2.3293457 -0.8177872 -3.2610474 -0.8177872q-3.7268677 0 -6.0820923 3.0258064q-2.3551636 3.0258064 -2.3551636 7.1556206q0 6.8285103 5.098572 6.8285103q3.7269287 0 6.5997314 -5.6018333l0 -10.590317zm27.71875 -14.801914q-1.6046143 -1.7582359 -3.2351074 -1.7582359q-2.6140137 0 -4.5723877 3.8027q-1.949707 3.8027 -1.949707 9.159195l0 25.10601l-4.9174194 0l0 -43.792404l4.9174194 0l0 6.9920654q2.6916504 -7.8098507 7.9973145 -7.8098507q1.3199463 0 3.8045044 0.7360077l-2.0446167 7.5645123zm23.111938 36.268776l0 -3.2302475q-2.5622559 4.0480347 -7.4537964 4.0480347q-5.2020874 0 -8.437256 -5.888054q-3.2351685 -5.888054 -3.2351685 -15.701477q0 -9.854313 3.7268677 -16.819118q3.7269287 -6.9784336 8.877258 -6.9784336q4.2963257 0 6.5220947 3.1893635l0 -20.321964l4.9174194 0l0 61.701897l-4.9174194 0zm0 -33.610973q-1.8634644 -4.4160385 -5.098572 -4.4160385q-3.9598389 0 -6.409912 4.661373q-2.4414673 4.661377 -2.4414673 11.857887q0 15.824142 9.110168 15.824142q1.1646729 0 2.795166 -1.1585236q1.6304932 -1.1721649 2.0446167 -2.4806175l0 -24.288223z" fill-rule="nonzero"></path></svg>

